<svg width="16mm" height="16mm" viewBox="0 0 16 16" xmlns="http://www.w3.org/2000/svg"><defs><linearGradient id="a" x1=".075" x2="1.003" y1=".927" gradientTransform="matrix(11.128 0 0 12.94 2 2)" gradientUnits="userSpaceOnUse"><stop stop-color="red" offset="0"/><stop stop-color="#ff4646" offset="1"/></linearGradient></defs><rect width="16" height="16" ry="2" fill="#fff"/><path d="M7.58 2c-.108 0-.18.072-.18.168V7.64a1.992 2.28 0 01.276-.06 1.992 2.28 0 01.396-.024 1.992 2.28 0 01.48.096V2.168c0-.096-.072-.168-.18-.168zM3.56 3.08c-.384 0-.72.288-.72.636v9.66c.012.348.324.624.72.624h1.128c.384 0 .696-.276.696-.624v-.048c0-.084-.072-.156-.18-.156h-.12c-.264-.012-.48-.192-.48-.432V5.792c0-.24.216-.42.48-.42h.06a.24.216 0 00.24-.228v-1.44c0-.324-.312-.624-.696-.624zm7.752 0c-.384 0-.696.288-.696.636v1.428a.24.216 0 00.24.216h.06c.264 0 .48.192.48.432v6.948c0 .24-.216.432-.48.432h-.12a.168.168 0 00-.18.156v.048c0 .348.312.624.696.624h1.128c.384 0 .72-.276.72-.624v-9.66c-.012-.36-.324-.636-.72-.636zM5.6 6.092c-.276 0-.504.204-.504.468v5.736c0 .252.228.456.504.456h4.74c.3-.012.504-.216.504-.468V6.56c0-.24-.204-.456-.504-.468H9.02c-.084 0-.18.072-.18.168v1.488c.72.312 1.164.96 1.176 1.68v2.328c0 .096-.096.168-.192.168H6.176c-.096 0-.18-.072-.18-.168V9.44c0-.696.432-1.332 1.104-1.656V6.26a.18.18 0 00-.18-.18zM8 7.964a1.656 1.536 0 00-1.656 1.524v1.896c0 .084.084.168.18.168h2.952c.108 0 .204-.072.204-.168V9.488A1.656 1.536 0 008 7.952z" fill="url(#a)"/><path d="M13.082 6.415a.64.64 0 00-.907 0l-.401.4-1.361-1.36a.64.64 0 00-.907 0 .64.64 0 000 .907l1.36 1.361-1.013 1.013-1.361-1.36a.64.64 0 00-.907 0 .64.64 0 000 .907l1.36 1.36-.4.402a.64.64 0 000 .907l1.375 1.374a3.208 3.208 0 104.536-4.536l-1.374-1.375z"/></svg>